<svg width="32" height="32" viewBox="0 0 32 32" fill="none" xmlns="http://www.w3.org/2000/svg">
<path fill-rule="evenodd" clip-rule="evenodd" d="M26.9999 15.0001C27.5522 15.0001 27.9999 15.4478 27.9999 16.0001V22.0001C27.9999 22.5523 27.5522 23.0001 26.9999 23.0001C26.4477 23.0001 25.9999 22.5523 25.9999 22.0001V16.0001C25.9999 15.4478 26.4477 15.0001 26.9999 15.0001Z" fill="black"/>
<path fill-rule="evenodd" clip-rule="evenodd" d="M22.9999 19.0001C22.9999 18.4478 23.4477 18.0001 23.9999 18.0001H29.9999C30.5522 18.0001 30.9999 18.4478 30.9999 19.0001C30.9999 19.5523 30.5522 20.0001 29.9999 20.0001H23.9999C23.4477 20.0001 22.9999 19.5523 22.9999 19.0001Z" fill="black"/>
<path fill-rule="evenodd" clip-rule="evenodd" d="M10.4999 4.00006C11.0522 4.00006 11.4999 4.44777 11.4999 5.00006V10.0001C11.4999 10.5523 11.0522 11.0001 10.4999 11.0001C9.94766 11.0001 9.49994 10.5523 9.49994 10.0001V5.00006C9.49994 4.44777 9.94766 4.00006 10.4999 4.00006Z" fill="black"/>
<path fill-rule="evenodd" clip-rule="evenodd" d="M6.99994 7.50006C6.99994 6.94777 7.44766 6.50006 7.99994 6.50006H12.9999C13.5522 6.50006 13.9999 6.94777 13.9999 7.50006C13.9999 8.05234 13.5522 8.50006 12.9999 8.50006H7.99994C7.44766 8.50006 6.99994 8.05234 6.99994 7.50006Z" fill="black"/>
<path fill-rule="evenodd" clip-rule="evenodd" d="M20.9999 22.0001C21.5522 22.0001 21.9999 22.4478 21.9999 23.0001V27.0001C21.9999 27.5523 21.5522 28.0001 20.9999 28.0001C20.4477 28.0001 19.9999 27.5523 19.9999 27.0001V23.0001C19.9999 22.4478 20.4477 22.0001 20.9999 22.0001Z" fill="black"/>
<path fill-rule="evenodd" clip-rule="evenodd" d="M17.9999 25.0001C17.9999 24.4478 18.4477 24.0001 18.9999 24.0001H22.9999C23.5522 24.0001 23.9999 24.4478 23.9999 25.0001C23.9999 25.5523 23.5522 26.0001 22.9999 26.0001H18.9999C18.4477 26.0001 17.9999 25.5523 17.9999 25.0001Z" fill="black"/>
<path fill-rule="evenodd" clip-rule="evenodd" d="M4.00815 25.4134C3.2271 24.6324 3.2271 23.366 4.00815 22.585L22.5962 3.99692C23.3773 3.21587 24.6436 3.21587 25.4246 3.99692L28.01 6.58228C28.7911 7.36333 28.7911 8.62966 28.01 9.41071L9.42194 27.9988C8.64089 28.7798 7.37456 28.7798 6.59351 27.9988L4.00815 25.4134ZM24.0104 5.41113L5.42236 23.9992L8.00772 26.5846L26.5958 7.99649L24.0104 5.41113Z" fill="black"/>
<path fill-rule="evenodd" clip-rule="evenodd" d="M17.2928 9.29295C17.6834 8.90243 18.3165 8.90243 18.707 9.29295L22.707 13.293C23.0976 13.6835 23.0976 14.3166 22.707 14.7072C22.3165 15.0977 21.6834 15.0977 21.2928 14.7072L17.2928 10.7072C16.9023 10.3166 16.9023 9.68348 17.2928 9.29295Z" fill="black"/>
</svg>
