<svg width="16" height="17" viewBox="0 0 16 17" fill="none" xmlns="http://www.w3.org/2000/svg">
<path fill-rule="evenodd" clip-rule="evenodd" d="M11.1843 3.83208C10.9522 3.67032 10.7067 3.52874 10.4505 3.4089L9.48049 1.66153C8.5033 1.44769 7.49131 1.44878 6.51458 1.66472L5.54592 3.40486C5.29142 3.52849 5.04607 3.67014 4.81175 3.82874L2.81123 3.79508C2.14125 4.53632 1.63778 5.41244 1.3347 6.36451L2.36296 8.07823C2.33863 8.36005 2.3385 8.64344 2.36256 8.92529L1.33203 10.639C1.6352 11.5904 2.14234 12.4642 2.81805 13.1994L4.81161 13.1672C5.0456 13.3294 5.29208 13.4729 5.54874 13.5962L6.51537 15.3377C7.49257 15.5515 8.50456 15.5505 9.48129 15.3345L10.4499 13.5944C10.7044 13.4707 10.9498 13.3291 11.1841 13.1705L13.1846 13.2042C13.8546 12.4629 14.3581 11.5868 14.6612 10.6347L13.6329 8.921C13.6572 8.63918 13.6574 8.35579 13.6333 8.07395L14.6638 6.36024C14.3607 5.40882 13.8535 4.53503 13.1778 3.79983L11.1843 3.83208ZM11.2294 8.50051C11.2294 10.2841 9.78352 11.73 7.99991 11.73C6.2163 11.73 4.7704 10.2841 4.7704 8.50051C4.7704 6.7169 6.2163 5.27099 7.99991 5.27099C9.78352 5.27099 11.2294 6.7169 11.2294 8.50051Z" fill="#5D6C87"/>
</svg>
