<svg width="4" height="12" viewBox="0 0 4 12" fill="none" xmlns="http://www.w3.org/2000/svg">
<path d="M1.99992 3.08333C2.23066 3.08333 2.45623 3.01491 2.64808 2.88671C2.83994 2.75852 2.98948 2.57631 3.07778 2.36313C3.16608 2.14995 3.18919 1.91537 3.14417 1.68906C3.09915 1.46275 2.98804 1.25487 2.82488 1.09171C2.66172 0.928548 2.45384 0.817434 2.22752 0.772418C2.00121 0.727402 1.76664 0.750505 1.55346 0.838808C1.34027 0.92711 1.15807 1.07664 1.02987 1.2685C0.901676 1.46036 0.833253 1.68592 0.833253 1.91667C0.833253 2.22609 0.956169 2.52283 1.17496 2.74162C1.39375 2.96042 1.6905 3.08333 1.99992 3.08333ZM1.99992 8.91667C1.76917 8.91667 1.54361 8.98509 1.35175 9.11329C1.1599 9.24148 1.01036 9.42369 0.92206 9.63687C0.833757 9.85005 0.810654 10.0846 0.85567 10.3109C0.900686 10.5372 1.0118 10.7451 1.17496 10.9083C1.33812 11.0715 1.546 11.1826 1.77231 11.2276C1.99863 11.2726 2.2332 11.2495 2.44638 11.1612C2.65956 11.0729 2.84177 10.9234 2.96997 10.7315C3.09816 10.5396 3.16659 10.3141 3.16659 10.0833C3.16659 9.77391 3.04367 9.47717 2.82488 9.25838C2.60608 9.03958 2.30934 8.91667 1.99992 8.91667ZM1.99992 4.83333C1.76917 4.83333 1.54361 4.90176 1.35175 5.02995C1.1599 5.15815 1.01036 5.34036 0.92206 5.55354C0.833757 5.76672 0.810654 6.00129 0.85567 6.22761C0.900686 6.45392 1.0118 6.6618 1.17496 6.82496C1.33812 6.98812 1.546 7.09923 1.77231 7.14425C1.99863 7.18927 2.2332 7.16616 2.44638 7.07786C2.65956 6.98956 2.84177 6.84002 2.96997 6.64816C3.09816 6.45631 3.16659 6.23074 3.16659 6C3.16659 5.69058 3.04367 5.39383 2.82488 5.17504C2.60608 4.95625 2.30934 4.83333 1.99992 4.83333Z" fill="#ABB1C1"/>
</svg>
