<svg width="64" height="64" viewBox="0 0 64 64" fill="none" xmlns="http://www.w3.org/2000/svg">
<rect width="64" height="64" rx="32" fill="#ECF6FE"/>
<path fill-rule="evenodd" clip-rule="evenodd" d="M36.4566 17.1104C36.8543 17.3145 37.0683 17.7578 36.9806 18.1962L35.1474 27.3623L42.3511 30.0637C42.6638 30.1809 42.8973 30.4465 42.9736 30.7715C43.0499 31.0966 42.9589 31.4383 42.7311 31.6824L28.7311 46.6824C28.426 47.0092 27.9412 47.0938 27.5434 46.8897C27.1457 46.6856 26.9318 46.2423 27.0194 45.8039L28.8527 36.6378L21.6489 33.9364C21.3363 33.8191 21.1028 33.5536 21.0265 33.2285C20.9502 32.9035 21.0411 32.5618 21.269 32.3177L35.269 17.3177C35.574 16.9909 36.0589 16.9062 36.4566 17.1104ZM23.7516 32.5889L30.3511 35.0637C30.8102 35.2359 31.0767 35.7154 30.9806 36.1962L29.671 42.7441L40.2484 31.4112L33.6489 28.9364C33.1898 28.7642 32.9233 28.2847 33.0194 27.8039L34.329 21.256L23.7516 32.5889Z" fill="#074F87"/>
</svg>
