<svg width="143" height="143" viewBox="0 0 143 143" fill="none" xmlns="http://www.w3.org/2000/svg">
<path fill-rule="evenodd" clip-rule="evenodd" d="M32.6928 30.9314C36.5835 34.0925 38.0431 33.8513 45.3494 33.3638L114.228 29.228C115.689 29.228 114.474 27.7706 113.987 27.5284L102.548 19.2587C100.356 17.557 97.4356 15.6081 91.8387 16.0957L25.1434 20.9602C22.711 21.2014 22.2252 22.4176 23.1938 23.3923L32.6928 30.9314ZM36.8282 46.9836V119.456C36.8282 123.351 38.7745 124.808 43.1552 124.567L118.853 120.187C123.236 119.946 123.724 117.267 123.724 114.103V42.1169C123.724 38.958 122.509 37.2545 119.826 37.4977L40.7211 42.1169C37.8017 42.3622 36.8279 43.8225 36.8279 46.9836H36.8282ZM111.557 50.8712C112.042 53.0621 111.557 55.2511 109.362 55.4975L105.714 56.2242V109.728C102.548 111.43 99.6276 112.403 97.1942 112.403C93.2983 112.403 92.3226 111.186 89.4044 107.54L65.5471 70.0871V106.324L73.0965 108.027C73.0965 108.027 73.0965 112.403 67.0057 112.403L50.2147 113.377C49.7269 112.403 50.2147 109.973 51.9179 109.486L56.2996 108.272V60.3598L50.2159 59.8723C49.7279 57.6813 50.9431 54.5222 54.3532 54.2771L72.3661 53.0629L97.1942 91.0034V57.4401L90.864 56.7137C90.3782 54.0352 92.3226 52.0903 94.7569 51.8491L111.557 50.8712ZM19.5435 14.3942L88.9174 9.28526C97.4366 8.55461 99.6286 9.04409 104.983 12.9336L127.128 28.4983C130.782 31.1748 132 31.9035 132 34.8212V120.187C132 125.537 130.051 128.701 123.237 129.185L42.6731 134.05C37.5581 134.294 35.1237 133.565 32.445 130.158L16.1371 108.999C13.2152 105.105 12 102.191 12 98.7819V22.9031C12 18.528 13.9496 14.8785 19.5435 14.3942V14.3942Z" fill="black"/>
</svg>
