<svg width="39" height="31" viewBox="0 0 39 31" fill="none" xmlns="http://www.w3.org/2000/svg">
<path fill-rule="evenodd" clip-rule="evenodd" d="M21.5517 2.05992C21.5517 3.02079 20.8953 3.82799 20.0076 4.05566V6.16331C31.5252 6.28008 34.9793 10.4172 34.9793 10.4172C37.2765 18.9451 34.2225 23.8389 34.2225 23.8389C30.3962 30.7357 22.3465 30.9368 19.508 30.9368C16.6696 30.9368 8.61978 30.7357 4.79358 23.8389C4.79358 23.8389 1.73943 18.9451 4.03667 10.4172C4.03667 10.4172 7.48625 6.28551 18.9858 6.16354V4.05566C18.0979 3.82799 17.4417 3.02079 17.4417 2.05992C17.4417 0.922257 18.3616 0 19.4966 0C20.6316 0 21.5517 0.922257 21.5517 2.05992ZM3.16244 22.5529C3.16244 22.5529 1.65239 19.2411 2.59096 13.5697C2.59096 13.5697 0.0250252 14.4952 0.00610227 16.6994C-0.0128206 18.9034 0.00610227 19.1539 0.00610227 19.1539C0.00610227 19.1539 0.123424 22.2646 3.16244 22.5529ZM36.4061 13.5697C37.3447 19.2411 35.8346 22.5529 35.8346 22.5529C38.8736 22.2646 38.991 19.1539 38.991 19.1539C38.991 19.1539 39.0061 18.9034 38.991 16.6994C38.972 14.4952 36.4061 13.5697 36.4061 13.5697Z" fill="url(#paint0_linear)"/>
<mask id="mask0" style="mask-type:alpha" maskUnits="userSpaceOnUse" x="3" y="6" width="33" height="25">
<path d="M34.9811 10.4174C34.9811 10.4174 31.4274 6.16101 19.5098 6.16101C7.59218 6.16101 4.03847 10.4174 4.03847 10.4174C1.74124 18.9453 4.79539 23.8391 4.79539 23.8391C8.62159 30.7359 16.6714 30.937 19.5098 30.937C22.3483 30.937 30.398 30.7359 34.2243 23.8391C34.2243 23.8391 37.2783 18.9453 34.9811 10.4174Z" fill="white"/>
</mask>
<g mask="url(#mask0)">
<path d="M19.5686 26.7479C27.0506 26.7479 33.116 20.668 33.116 13.1682C33.116 5.66838 27.0506 -0.411438 19.5686 -0.411438C12.0866 -0.411438 6.02124 5.66838 6.02124 13.1682C6.02124 20.668 12.0866 26.7479 19.5686 26.7479Z" fill="url(#paint1_linear)"/>
<path d="M19.4316 21.1238L9.16848 5.21234H29.6948L19.4316 21.1238Z" fill="url(#paint2_linear)"/>
<path d="M33.3313 16.1532C33.2631 14.5372 33.1874 12.6821 32.2072 11.3316C31.7228 10.6639 30.9544 10.2125 30.2241 9.86349C29.785 9.65484 28.6989 9.19961 28.6989 10.1063C28.6989 10.1139 28.6989 10.975 28.6989 10.975C28.6497 12.1738 28.3962 12.9439 28.3962 12.9439C27.7679 14.3817 26.447 14.4195 26.447 14.4195H25.7544H19.5099H13.2692H12.5766C12.5766 14.4195 11.2558 14.3817 10.6276 12.9439C10.6276 12.9439 10.374 12.1738 10.3248 10.975C10.3248 10.975 10.3248 10.1101 10.3248 10.1063C10.3248 9.19582 9.23484 9.65104 8.79961 9.86349C8.06919 10.2125 7.30091 10.6639 6.81649 11.3316C5.83629 12.6821 5.76061 14.5372 5.69247 16.1532C5.56002 19.1996 6.19204 22.2647 8.42494 24.4878C8.42494 24.4878 11.4715 27.7313 16.8683 28.2966C16.8683 28.2966 18.4881 28.4938 19.5099 28.4824C20.5356 28.4938 22.1515 28.2966 22.1515 28.2966C27.5521 27.7274 30.595 24.4878 30.595 24.4878C32.8355 22.2647 33.4637 19.1957 33.3313 16.1532Z" fill="white"/>
<path d="M14.8243 23.7671C16.139 23.7671 17.2048 22.1994 17.2048 20.2656C17.2048 18.3318 16.139 16.7641 14.8243 16.7641C13.5096 16.7641 12.4438 18.3318 12.4438 20.2656C12.4438 22.1994 13.5096 23.7671 14.8243 23.7671Z" fill="#212240"/>
<path d="M24.112 23.7671C25.4267 23.7671 26.4925 22.1994 26.4925 20.2656C26.4925 18.3318 25.4267 16.7641 24.112 16.7641C22.7973 16.7641 21.7315 18.3318 21.7315 20.2656C21.7315 22.1994 22.7973 23.7671 24.112 23.7671Z" fill="#212240"/>
</g>
<defs>
<linearGradient id="paint0_linear" x1="-6.87568" y1="12.684" x2="45.092" y2="12.684" gradientUnits="userSpaceOnUse">
<stop stop-color="#0F78F4"/>
<stop offset="1" stop-color="#53F5B1"/>
</linearGradient>
<linearGradient id="paint1_linear" x1="19.5686" y1="-0.411438" x2="19.5686" y2="26.7479" gradientUnits="userSpaceOnUse">
<stop stop-color="#6FECF3"/>
<stop offset="1" stop-color="#006DF2"/>
</linearGradient>
<linearGradient id="paint2_linear" x1="19.4316" y1="5.21234" x2="19.4316" y2="21.1238" gradientUnits="userSpaceOnUse">
<stop stop-color="#006DED"/>
<stop offset="1" stop-color="#48F6E3"/>
</linearGradient>
</defs>
</svg>
