<svg width="40" height="40" viewBox="0 0 40 40" fill="none" xmlns="http://www.w3.org/2000/svg">
<rect width="40" height="40" rx="20" fill="#F7F7F7"/>
<path fill-rule="evenodd" clip-rule="evenodd" d="M29.5999 20.2276C29.5999 19.5185 29.5363 18.8367 29.4181 18.1821H19.9998V22.0503H25.3817C25.1499 23.3003 24.4453 24.3594 23.3862 25.0685V27.5776H26.6181C28.509 25.8367 29.5999 23.2731 29.5999 20.2276Z" fill="#4285F4"/>
<path fill-rule="evenodd" clip-rule="evenodd" d="M19.9999 30C22.6999 30 24.9636 29.1045 26.6181 27.5772L23.3863 25.0681C22.4909 25.6681 21.3454 26.0227 19.9999 26.0227C17.3954 26.0227 15.1908 24.2636 14.4044 21.8999H11.0635V24.4908C12.709 27.759 16.0908 30 19.9999 30Z" fill="#34A853"/>
<path fill-rule="evenodd" clip-rule="evenodd" d="M14.4043 21.9002C14.2043 21.3002 14.0907 20.6593 14.0907 20.0002C14.0907 19.3411 14.2043 18.7002 14.4043 18.1002V15.5093H11.0634C10.3861 16.8593 9.99976 18.3866 9.99976 20.0002C9.99976 21.6139 10.3861 23.1411 11.0634 24.4912L14.4043 21.9002Z" fill="#FBBC05"/>
<path fill-rule="evenodd" clip-rule="evenodd" d="M19.9999 13.9773C21.4681 13.9773 22.7863 14.4818 23.8227 15.4728L26.6909 12.6046C24.959 10.9909 22.6954 10 19.9999 10C16.0908 10 12.709 12.2409 11.0635 15.5091L14.4044 18.1C15.1908 15.7364 17.3954 13.9773 19.9999 13.9773Z" fill="#EA4335"/>
</svg>
