<svg width="513" height="513" viewBox="0 0 513 513" fill="none" xmlns="http://www.w3.org/2000/svg">
<g clip-path="url(#clip0_1502_2)">
<path d="M89.9345 89.9344C57.1157 122.753 34.7659 164.567 25.7112 210.088C16.6566 255.608 21.3038 302.792 39.0651 345.672C56.8265 388.552 86.9043 425.201 125.495 450.987C164.086 476.773 209.456 490.535 255.869 490.535C302.282 490.535 347.652 476.772 386.243 450.987C424.833 425.201 454.911 388.552 472.673 345.672C490.434 302.792 495.081 255.608 486.026 210.088C476.972 164.567 454.622 122.753 421.803 89.9344C377.759 45.9937 318.084 21.3168 255.869 21.3168C193.654 21.3168 133.979 45.9937 89.9345 89.9344V89.9344ZM391.633 391.633C364.782 418.485 330.571 436.771 293.326 444.18C256.082 451.588 217.477 447.786 182.394 433.254C147.31 418.722 117.324 394.113 96.2267 362.538C75.1295 330.964 63.8689 293.843 63.8689 255.869C63.8689 217.895 75.1295 180.774 96.2267 149.199C117.324 117.625 147.31 93.0159 182.394 78.4839C217.477 63.9519 256.082 60.1496 293.326 67.558C330.571 74.9664 364.782 93.2526 391.633 120.104C427.588 156.139 447.781 204.965 447.781 255.869C447.781 306.773 427.588 355.599 391.633 391.633V391.633Z" fill="url(#paint0_linear_1502_2)"/>
<path d="M255.854 127.873C250.197 127.874 244.772 130.121 240.772 134.121C236.772 138.121 234.524 143.546 234.523 149.203L234.539 234.539L149.203 234.524C146.371 234.474 143.557 234.99 140.926 236.04C138.295 237.089 135.899 238.653 133.879 240.638C131.859 242.624 130.254 244.992 129.158 247.604C128.063 250.217 127.499 253.021 127.499 255.854C127.499 258.686 128.063 261.491 129.158 264.103C130.254 266.716 131.859 269.084 133.879 271.069C135.899 273.055 138.295 274.618 140.926 275.668C143.557 276.718 146.371 277.233 149.203 277.184L234.539 277.199L234.554 362.534C234.504 365.367 235.02 368.181 236.07 370.812C237.119 373.443 238.683 375.838 240.668 377.858C242.654 379.879 245.022 381.484 247.634 382.579C250.247 383.674 253.051 384.239 255.884 384.239C258.716 384.239 261.521 383.674 264.133 382.579C266.746 381.484 269.114 379.879 271.099 377.858C273.085 375.838 274.648 373.443 275.698 370.812C276.748 368.181 277.263 365.367 277.214 362.534L277.199 277.199L362.534 277.214C365.367 277.263 368.18 276.748 370.811 275.698C373.442 274.648 375.838 273.085 377.858 271.099C379.879 269.114 381.483 266.746 382.579 264.133C383.674 261.521 384.238 258.717 384.238 255.884C384.238 253.051 383.674 250.247 382.579 247.634C381.483 245.022 379.879 242.654 377.858 240.668C375.838 238.683 373.442 237.12 370.811 236.07C368.18 235.02 365.367 234.505 362.534 234.554L277.199 234.539L277.184 149.203C277.183 143.546 274.935 138.121 270.935 134.121C266.935 130.121 261.51 127.874 255.854 127.873V127.873Z" fill="url(#paint1_linear_1502_2)"/>
</g>
<defs>
<linearGradient id="paint0_linear_1502_2" x1="89.9344" y1="89.9344" x2="392" y2="562" gradientUnits="userSpaceOnUse">
<stop stop-color="#006BFF"/>
<stop offset="1" stop-color="#02F1C5"/>
</linearGradient>
<linearGradient id="paint1_linear_1502_2" x1="187.258" y1="187.258" x2="324.479" y2="324.479" gradientUnits="userSpaceOnUse">
<stop stop-color="#006BFF"/>
<stop offset="1" stop-color="#02F1C5"/>
</linearGradient>
<clipPath id="clip0_1502_2">
<rect width="512" height="512" fill="white" transform="translate(0.0385742 0.0386963)"/>
</clipPath>
</defs>
</svg>
