<svg width="143" height="143" viewBox="0 0 143 143" fill="none" xmlns="http://www.w3.org/2000/svg">
<g clip-path="url(#clip0_858_358)">
<path d="M20.1818 116.275H39.2727V69.7698L12 49.2527V108.068C12 112.609 15.6682 116.275 20.1818 116.275Z" fill="#4285F4"/>
<path d="M104.727 116.275H123.818C128.345 116.275 132 112.596 132 108.068V49.2527L104.727 69.7698" fill="#34A853"/>
<path d="M104.727 34.2068V69.7698L132 49.2527V38.3102C132 28.1611 120.45 22.3753 112.364 28.462" fill="#FBBC04"/>
<path d="M39.2727 69.7698V34.2068L72 58.8273L104.727 34.2068V69.7698L72 94.3903" fill="#EA4335"/>
<path d="M12 38.3102V49.2527L39.2727 69.7698V34.2068L31.6364 28.462C23.5364 22.3753 12 28.1611 12 38.3102" fill="#C5221F"/>
</g>
<defs>
<clipPath id="clip0_858_358">
<rect width="120" height="90.2752" fill="white" transform="translate(12 26)"/>
</clipPath>
</defs>
</svg>
