<svg width="8" height="14" viewBox="0 0 8 14" fill="none" xmlns="http://www.w3.org/2000/svg">
<path d="M0.755037 7.65125L5.94337 12.8304C6.02859 12.9163 6.12997 12.9845 6.24167 13.0311C6.35338 13.0776 6.47319 13.1016 6.5942 13.1016C6.71521 13.1016 6.83503 13.0776 6.94673 13.0311C7.05844 12.9845 7.15982 12.9163 7.24504 12.8304C7.41577 12.6587 7.5116 12.4263 7.5116 12.1842C7.5116 11.942 7.41577 11.7097 7.24504 11.5379L2.70754 6.95458L7.24504 2.41708C7.41577 2.24533 7.5116 2.013 7.5116 1.77083C7.5116 1.52866 7.41577 1.29633 7.24504 1.12458C7.16014 1.03797 7.0589 0.96906 6.94718 0.921855C6.83546 0.874649 6.71548 0.850084 6.5942 0.849581C6.47292 0.850084 6.35295 0.874649 6.24123 0.921855C6.12951 0.96906 6.02827 1.03797 5.94337 1.12458L0.755037 6.30375C0.661991 6.38959 0.587733 6.49377 0.536943 6.60972C0.486153 6.72568 0.459932 6.8509 0.459932 6.9775C0.459932 7.10409 0.486153 7.22931 0.536943 7.34527C0.587733 7.46123 0.661991 7.56541 0.755037 7.65125V7.65125Z" fill="black" fill-opacity="0.55"/>
</svg>
