<svg width="108" height="90" viewBox="0 0 108 90" fill="none" xmlns="http://www.w3.org/2000/svg">
<g filter="url(#filter0_d_44_2)">
<rect x="4" width="100" height="80" rx="8" fill="white"/>
</g>
<path d="M39.4277 33.0857V36.6716H28.3535V33.0857H39.4277ZM31.0957 28.3923H36.1582V46.3748C36.1582 46.9255 36.2285 47.3474 36.3691 47.6404C36.5215 47.9333 36.7441 48.1384 37.0371 48.2556C37.3301 48.3611 37.6992 48.4138 38.1445 48.4138C38.4609 48.4138 38.7422 48.4021 38.9883 48.3787C39.2461 48.3435 39.4629 48.3083 39.6387 48.2732L39.6562 51.9998C39.2227 52.1404 38.7539 52.2517 38.25 52.3337C37.7461 52.4158 37.1895 52.4568 36.5801 52.4568C35.4668 52.4568 34.4941 52.2751 33.6621 51.9119C32.8418 51.5369 32.209 50.9392 31.7637 50.1189C31.3184 49.2986 31.0957 48.2205 31.0957 46.8845V28.3923ZM52.5762 47.8162V39.3435C52.5762 38.7341 52.4766 38.2126 52.2773 37.7791C52.0781 37.3337 51.7676 36.988 51.3457 36.7419C50.9355 36.4958 50.4023 36.3728 49.7461 36.3728C49.1836 36.3728 48.6973 36.4724 48.2871 36.6716C47.877 36.8591 47.5605 37.1345 47.3379 37.4978C47.1152 37.8494 47.0039 38.2654 47.0039 38.7458H41.9414C41.9414 37.9373 42.1289 37.1697 42.5039 36.4431C42.8789 35.7166 43.4238 35.0779 44.1387 34.5271C44.8535 33.9646 45.7031 33.5251 46.6875 33.2087C47.6836 32.8923 48.7969 32.7341 50.0273 32.7341C51.5039 32.7341 52.8164 32.9802 53.9648 33.4724C55.1133 33.9646 56.0156 34.7029 56.6719 35.6873C57.3398 36.6716 57.6738 37.9021 57.6738 39.3787V47.5173C57.6738 48.5603 57.7383 49.4158 57.8672 50.0837C57.9961 50.74 58.1836 51.3142 58.4297 51.8064V52.1052H53.3145C53.0684 51.5896 52.8809 50.9451 52.752 50.1716C52.6348 49.3865 52.5762 48.6013 52.5762 47.8162ZM53.2441 40.5212L53.2793 43.3865H50.4492C49.7812 43.3865 49.2012 43.4626 48.709 43.615C48.2168 43.7673 47.8125 43.9841 47.4961 44.2654C47.1797 44.5349 46.9453 44.8513 46.793 45.2146C46.6523 45.5779 46.582 45.9763 46.582 46.4099C46.582 46.8435 46.6816 47.2361 46.8809 47.5876C47.0801 47.9275 47.3672 48.197 47.7422 48.3962C48.1172 48.5837 48.5566 48.6775 49.0605 48.6775C49.8223 48.6775 50.4844 48.5251 51.0469 48.2205C51.6094 47.9158 52.043 47.5408 52.3477 47.0955C52.6641 46.6501 52.8281 46.2283 52.8398 45.8298L54.1758 47.9744C53.9883 48.4548 53.7305 48.9529 53.4023 49.4685C53.0859 49.9841 52.6816 50.4705 52.1895 50.9275C51.6973 51.3728 51.1055 51.7419 50.4141 52.0349C49.7227 52.3162 48.9023 52.4568 47.9531 52.4568C46.7461 52.4568 45.6504 52.2166 44.666 51.7361C43.6934 51.2439 42.9199 50.5701 42.3457 49.7146C41.7832 48.8474 41.502 47.863 41.502 46.7615C41.502 45.7654 41.6895 44.8806 42.0645 44.1072C42.4395 43.3337 42.9902 42.6833 43.7168 42.156C44.4551 41.6169 45.375 41.2126 46.4766 40.9431C47.5781 40.6619 48.8555 40.5212 50.3086 40.5212H53.2441ZM61.5762 25.1052H66.6387V47.7458L66.1289 52.1052H61.5762V25.1052ZM78.6797 42.4021V42.7712C78.6797 44.1892 78.5273 45.49 78.2227 46.6736C77.9297 47.8572 77.4727 48.8826 76.8516 49.7498C76.2305 50.6052 75.457 51.2732 74.5312 51.7537C73.6172 52.2224 72.5391 52.4568 71.2969 52.4568C70.1367 52.4568 69.1289 52.2224 68.2734 51.7537C67.4297 51.2849 66.7207 50.6228 66.1465 49.7673C65.5723 48.9119 65.1094 47.9099 64.7578 46.7615C64.4062 45.613 64.1426 44.3591 63.9668 42.9998V42.1912C64.1426 40.8318 64.4062 39.5779 64.7578 38.4294C65.1094 37.281 65.5723 36.2791 66.1465 35.4236C66.7207 34.5681 67.4297 33.906 68.2734 33.4373C69.1172 32.9685 70.1133 32.7341 71.2617 32.7341C72.5156 32.7341 73.6055 32.9744 74.5312 33.4548C75.4688 33.9236 76.2422 34.5916 76.8516 35.4587C77.4727 36.3142 77.9297 37.3337 78.2227 38.5173C78.5273 39.6892 78.6797 40.9841 78.6797 42.4021ZM73.6172 42.7712V42.4021C73.6172 41.6287 73.5586 40.9021 73.4414 40.2224C73.3359 39.531 73.1484 38.9275 72.8789 38.4119C72.6094 37.8845 72.2402 37.4685 71.7715 37.1638C71.3145 36.8591 70.7227 36.7068 69.9961 36.7068C69.3047 36.7068 68.7188 36.824 68.2383 37.0583C67.7578 37.2927 67.3594 37.6208 67.043 38.0427C66.7383 38.4646 66.5098 38.9685 66.3574 39.5544C66.2051 40.1287 66.1113 40.7615 66.0762 41.4529V43.7556C66.1113 44.6814 66.2637 45.5017 66.5332 46.2166C66.8145 46.9197 67.2363 47.4763 67.7988 47.8865C68.373 48.2849 69.1172 48.4841 70.0312 48.4841C70.7461 48.4841 71.3379 48.3435 71.8066 48.0623C72.2754 47.781 72.6387 47.3826 72.8965 46.8669C73.166 46.3513 73.3535 45.7478 73.459 45.0564C73.5645 44.3533 73.6172 43.5916 73.6172 42.7712Z" fill="black"/>
<defs>
<filter id="filter0_d_44_2" x="0" y="0" width="108" height="90" filterUnits="userSpaceOnUse" color-interpolation-filters="sRGB">
<feFlood flood-opacity="0" result="BackgroundImageFix"/>
<feColorMatrix in="SourceAlpha" type="matrix" values="0 0 0 0 0 0 0 0 0 0 0 0 0 0 0 0 0 0 127 0" result="hardAlpha"/>
<feOffset dy="6"/>
<feGaussianBlur stdDeviation="2"/>
<feComposite in2="hardAlpha" operator="out"/>
<feColorMatrix type="matrix" values="0 0 0 0 0 0 0 0 0 0 0 0 0 0 0 0 0 0 0.25 0"/>
<feBlend mode="normal" in2="BackgroundImageFix" result="effect1_dropShadow_44_2"/>
<feBlend mode="normal" in="SourceGraphic" in2="effect1_dropShadow_44_2" result="shape"/>
</filter>
</defs>
</svg>
