<svg width="20" height="20" viewBox="0 0 20 20" fill="none" xmlns="http://www.w3.org/2000/svg">
<path d="M19.4866 18.0158L14.0458 12.575C15.2334 11.0139 15.7837 9.05991 15.5853 7.10845C15.3869 5.15699 14.4547 3.35373 12.9773 2.06349C11.4999 0.773252 9.58748 0.0923672 7.62709 0.158589C5.66669 0.224811 3.80463 1.0332 2.41763 2.4202C1.03063 3.8072 0.222248 5.66925 0.156026 7.62965C0.0898037 9.59005 0.770689 11.5024 2.06093 12.9798C3.35117 14.4573 5.15443 15.3895 7.10589 15.5878C9.05735 15.7862 11.0113 15.2359 12.5724 14.0483L18.0133 19.4892C18.2103 19.6814 18.4747 19.789 18.7499 19.789C19.0252 19.789 19.2896 19.6814 19.4866 19.4892C19.6818 19.2937 19.7915 19.0287 19.7915 18.7525C19.7915 18.4763 19.6818 18.2113 19.4866 18.0158ZM2.29161 7.91667C2.29161 6.80415 2.62151 5.71661 3.23959 4.79159C3.85767 3.86656 4.73618 3.14559 5.76401 2.71985C6.79185 2.2941 7.92285 2.18271 9.01399 2.39975C10.1051 2.61679 11.1074 3.15252 11.8941 3.93919C12.6808 4.72586 13.2165 5.72814 13.4335 6.81929C13.6506 7.91043 13.5392 9.04143 13.1134 10.0693C12.6877 11.0971 11.9667 11.9756 11.0417 12.5937C10.1167 13.2118 9.02913 13.5417 7.91661 13.5417C6.4253 13.5399 4.99559 12.9467 3.94108 11.8922C2.88657 10.8377 2.29337 9.40797 2.29161 7.91667Z" fill="#081939"/>
</svg>
