<svg width="16" height="17" viewBox="0 0 16 17" fill="none" xmlns="http://www.w3.org/2000/svg">
<path fill-rule="evenodd" clip-rule="evenodd" d="M13.5 8C13.7761 8 14 8.22386 14 8.5V11.5C14 11.7761 13.7761 12 13.5 12C13.2239 12 13 11.7761 13 11.5V8.5C13 8.22386 13.2239 8 13.5 8Z" fill="#5D6C87"/>
<path fill-rule="evenodd" clip-rule="evenodd" d="M11.5 10C11.5 9.72386 11.7239 9.5 12 9.5H15C15.2761 9.5 15.5 9.72386 15.5 10C15.5 10.2761 15.2761 10.5 15 10.5H12C11.7239 10.5 11.5 10.2761 11.5 10Z" fill="#5D6C87"/>
<path fill-rule="evenodd" clip-rule="evenodd" d="M5.25 2.5C5.52614 2.5 5.75 2.72386 5.75 3V5.5C5.75 5.77614 5.52614 6 5.25 6C4.97386 6 4.75 5.77614 4.75 5.5V3C4.75 2.72386 4.97386 2.5 5.25 2.5Z" fill="#5D6C87"/>
<path fill-rule="evenodd" clip-rule="evenodd" d="M3.5 4.25C3.5 3.97386 3.72386 3.75 4 3.75H6.5C6.77614 3.75 7 3.97386 7 4.25C7 4.52614 6.77614 4.75 6.5 4.75H4C3.72386 4.75 3.5 4.52614 3.5 4.25Z" fill="#5D6C87"/>
<path fill-rule="evenodd" clip-rule="evenodd" d="M10.5 11.5C10.7761 11.5 11 11.7239 11 12V14C11 14.2761 10.7761 14.5 10.5 14.5C10.2239 14.5 10 14.2761 10 14V12C10 11.7239 10.2239 11.5 10.5 11.5Z" fill="#5D6C87"/>
<path fill-rule="evenodd" clip-rule="evenodd" d="M9 13C9 12.7239 9.22386 12.5 9.5 12.5H11.5C11.7761 12.5 12 12.7239 12 13C12 13.2761 11.7761 13.5 11.5 13.5H9.5C9.22386 13.5 9 13.2761 9 13Z" fill="#5D6C87"/>
<path fill-rule="evenodd" clip-rule="evenodd" d="M1.74999 14.7504C1.80751 15.2471 1.8076 15.2471 1.8076 15.2471L1.74999 14.7504ZM1.8076 15.2471C1.65574 15.2647 1.5041 15.2118 1.3961 15.1036C1.28811 14.9954 1.23556 14.8437 1.25343 14.6919L1.25432 14.6844L1.25676 14.6643L1.2661 14.5895C1.27426 14.5252 1.28627 14.4335 1.30173 14.3225C1.3326 14.1011 1.37756 13.8007 1.43372 13.4881C1.48949 13.1776 1.55808 12.8449 1.63735 12.5624C1.67687 12.4215 1.72181 12.2831 1.77308 12.1618C1.81897 12.0532 1.89078 11.9064 2.00422 11.793L8.1773 5.6199C8.18311 5.62618 8.18908 5.63238 8.19518 5.63848L10.8618 8.30515C10.8692 8.31252 10.8767 8.31968 10.8843 8.32664L4.71111 14.4999C4.59741 14.6136 4.45027 14.6854 4.34152 14.7312C4.22001 14.7824 4.08135 14.8271 3.94029 14.8665C3.65732 14.9454 3.32409 15.0135 3.01316 15.0688C2.70006 15.1245 2.39927 15.1689 2.17747 15.1994C2.06633 15.2147 1.97448 15.2265 1.91015 15.2346L1.8352 15.2438L1.81507 15.2462L1.8076 15.2471ZM11.8261 7.38484L14.0051 5.20584C14.3957 4.81532 14.3957 4.18215 14.0051 3.79163L12.7125 2.49895C12.3219 2.10842 11.6888 2.10842 11.2983 2.49895L9.11941 4.67779C9.12569 4.6836 9.13189 4.68957 9.13799 4.69567L11.8047 7.36234C11.812 7.36971 11.8192 7.37721 11.8261 7.38484Z" fill="#5D6C87"/>
</svg>
