<svg width="470" height="470" viewBox="0 0 470 470" fill="none" xmlns="http://www.w3.org/2000/svg">
<path d="M235 0.333374C188.587 0.333374 143.217 14.0963 104.626 39.8818C66.0355 65.6673 35.9577 102.317 18.1963 145.197C0.43493 188.077 -4.21225 235.26 4.84241 280.781C13.8971 326.302 36.2469 368.116 69.0656 400.934C101.884 433.753 143.698 456.103 189.219 465.158C234.74 474.212 281.923 469.565 324.803 451.804C367.683 434.042 404.333 403.965 430.118 365.374C455.904 326.783 469.667 281.413 469.667 235C469.593 172.785 444.846 113.139 400.853 69.1467C356.861 25.1541 297.215 0.406771 235 0.333374V0.333374ZM235 427C197.026 427 159.905 415.739 128.331 394.642C96.7563 373.545 72.1472 343.559 57.6152 308.475C43.0831 273.392 39.2809 234.787 46.6893 197.543C54.0976 160.298 72.3838 126.087 99.2355 99.2355C126.087 72.3839 160.298 54.0976 197.543 46.6893C234.787 39.2809 273.392 43.0831 308.475 57.6152C343.559 72.1472 373.545 96.7563 394.642 128.331C415.739 159.905 427 197.026 427 235C426.944 285.904 406.697 334.707 370.702 370.702C334.707 406.697 285.904 426.944 235 427V427Z" fill="url(#paint0_linear_1503_8)"/>
<path d="M325.496 144.483C321.495 140.483 316.07 138.237 310.413 138.237C304.757 138.237 299.331 140.483 295.331 144.483L235 204.835L174.669 144.483C172.701 142.445 170.347 140.82 167.745 139.702C165.142 138.584 162.343 137.995 159.51 137.971C156.677 137.946 153.868 138.486 151.246 139.558C148.625 140.631 146.243 142.215 144.24 144.218C142.237 146.221 140.652 148.603 139.58 151.225C138.507 153.847 137.967 156.656 137.992 159.489C138.017 162.321 138.605 165.121 139.723 167.723C140.841 170.326 142.466 172.68 144.504 174.648L204.835 235L144.504 295.352C142.466 297.32 140.841 299.674 139.723 302.277C138.605 304.879 138.017 307.679 137.992 310.511C137.967 313.344 138.507 316.153 139.58 318.775C140.652 321.397 142.237 323.779 144.24 325.782C146.243 327.785 148.625 329.369 151.246 330.442C153.868 331.514 156.677 332.054 159.51 332.029C162.343 332.005 165.142 331.416 167.745 330.298C170.347 329.18 172.701 327.555 174.669 325.517L235 265.165L295.331 325.517C297.299 327.555 299.653 329.18 302.255 330.298C304.858 331.416 307.658 332.005 310.49 332.029C313.323 332.054 316.132 331.514 318.754 330.442C321.375 329.369 323.757 327.785 325.76 325.782C327.763 323.779 329.348 321.397 330.42 318.775C331.493 316.153 332.033 313.344 332.008 310.511C331.983 307.679 331.395 304.879 330.277 302.277C329.159 299.674 327.534 297.32 325.496 295.352L265.165 235L325.496 174.648C329.495 170.647 331.742 165.222 331.742 159.565C331.742 153.908 329.495 148.483 325.496 144.483V144.483Z" fill="url(#paint1_linear_1503_8)"/>
<defs>
<linearGradient id="paint0_linear_1503_8" x1="235" y1="0.333374" x2="235" y2="469.667" gradientUnits="userSpaceOnUse">
<stop stop-color="#E30000"/>
<stop offset="1" stop-color="#CF0000"/>
</linearGradient>
<linearGradient id="paint1_linear_1503_8" x1="235" y1="137.97" x2="235" y2="332.03" gradientUnits="userSpaceOnUse">
<stop stop-color="#E30000"/>
<stop offset="1" stop-color="#CF0000"/>
</linearGradient>
</defs>
</svg>
