<svg width="22" height="22" viewBox="0 0 22 22" fill="none" xmlns="http://www.w3.org/2000/svg">
<path d="M17.5001 9.50018C17.5001 9.23497 17.3947 8.98061 17.2072 8.79308C17.0196 8.60554 16.7653 8.50019 16.5001 8.50019L14.9101 8.50019L20.7101 2.71019C20.8033 2.61695 20.8773 2.50626 20.9277 2.38443C20.9782 2.26261 21.0042 2.13204 21.0042 2.00019C21.0042 1.86833 20.9782 1.73776 20.9277 1.61594C20.8773 1.49411 20.8033 1.38342 20.7101 1.29019C20.5218 1.10188 20.2664 0.996094 20.0001 0.996094C19.7338 0.996094 19.4784 1.10188 19.2901 1.29019L13.5001 7.09019L13.5001 5.50019C13.5001 5.23497 13.3947 4.98062 13.2072 4.79308C13.0196 4.60554 12.7653 4.50019 12.5001 4.50019C12.2348 4.50019 11.9805 4.60554 11.793 4.79308C11.6054 4.98061 11.5001 5.23497 11.5001 5.50019L11.5001 9.50018C11.5016 9.63086 11.5288 9.75996 11.5801 9.88018C11.6815 10.1245 11.8757 10.3187 12.1201 10.4202C12.2403 10.4714 12.3694 10.4986 12.5001 10.5002L16.5001 10.5002C16.7653 10.5002 17.0196 10.3948 17.2072 10.2073C17.3947 10.0198 17.5001 9.7654 17.5001 9.50018ZM2.71006 20.7102L8.50006 14.9102L8.50006 16.5002C8.50006 16.7654 8.60542 17.0198 8.79295 17.2073C8.98049 17.3948 9.23484 17.5002 9.50006 17.5002C9.76528 17.5002 10.0196 17.3948 10.2072 17.2073C10.3947 17.0198 10.5001 16.7654 10.5001 16.5002L10.5001 12.5002C10.4985 12.3695 10.4713 12.2404 10.4201 12.1202C10.3186 11.8758 10.1244 11.6817 9.88006 11.5802C9.75984 11.5289 9.63074 11.5018 9.50006 11.5002L5.50006 11.5002C5.23484 11.5002 4.98049 11.6055 4.79295 11.7931C4.60541 11.9806 4.50006 12.235 4.50006 12.5002C4.50006 12.7654 4.60541 13.0198 4.79295 13.2073C4.98049 13.3948 5.23484 13.5002 5.50006 13.5002L7.09006 13.5002L1.29006 19.2902C1.19633 19.3831 1.12193 19.4937 1.07117 19.6156C1.0204 19.7375 0.99426 19.8682 0.99426 20.0002C0.99426 20.1322 1.0204 20.2629 1.07117 20.3848C1.12193 20.5066 1.19633 20.6172 1.29006 20.7102C1.38302 20.8039 1.49362 20.8783 1.61548 20.9291C1.73734 20.9798 1.86805 21.006 2.00006 21.006C2.13207 21.006 2.26278 20.9798 2.38464 20.9291C2.50649 20.8783 2.6171 20.8039 2.71006 20.7102Z" fill="black" fill-opacity="0.55"/>
</svg>
